<svg width="23" height="23" viewBox="0 0 23 23" fill="none" xmlns="http://www.w3.org/2000/svg">
<path d="M22.12 11.56C22.12 5.7373 17.3827 1 11.56 1C5.73727 1 1 5.7373 1 11.56C1 17.3827 5.73731 22.12 11.56 22.12H20.8V20.8H16.661C19.9122 18.9979 22.12 15.5331 22.12 11.56Z" fill="#110E47" stroke="#110E47" stroke-width="0.66"/>
<path d="M2.32001 11.56C2.32001 6.46502 6.46498 2.32001 11.56 2.32001C16.6551 2.32001 20.8 6.46498 20.8 11.56C20.8 16.655 16.655 20.8 11.56 20.8C6.46503 20.8 2.32001 16.655 2.32001 11.56Z" fill="#D6D6FD" stroke="black" stroke-width="0.66"/>
<path fill-rule="evenodd" clip-rule="evenodd" d="M13.672 7.336C13.672 8.50061 12.7246 9.448 11.56 9.448C10.3953 9.448 9.448 8.50061 9.448 7.336C9.448 6.17139 10.3954 5.224 11.56 5.224C12.7246 5.224 13.672 6.17139 13.672 7.336ZM12.264 7.33602C12.264 6.94759 11.9484 6.63202 11.56 6.63202C11.1715 6.63202 10.856 6.94759 10.856 7.33602C10.856 7.72445 11.1716 8.04002 11.56 8.04002C11.9484 8.04002 12.264 7.72445 12.264 7.33602Z" fill="#110E47"/>
<path fill-rule="evenodd" clip-rule="evenodd" d="M7.98913 7.86155C9.09597 8.22182 9.70373 9.41597 9.34486 10.5228C9.05475 11.4145 8.22423 11.9824 7.33397 11.9824C7.11811 11.9824 6.89945 11.9494 6.68359 11.8793C5.57602 11.519 4.96826 10.3256 5.32713 9.218C5.6874 8.11044 6.88228 7.50269 7.98845 7.86155H7.98913ZM7.33667 9.16644C7.03971 9.16644 6.76262 9.3555 6.66638 9.65318C6.54675 10.0216 6.74955 10.4204 7.11874 10.5401C7.4845 10.6597 7.886 10.4576 8.00562 10.0877C8.12524 9.71918 7.92245 9.32112 7.55393 9.20082C7.48175 9.17744 7.40885 9.16644 7.33667 9.16644Z" fill="#110E47"/>
<path fill-rule="evenodd" clip-rule="evenodd" d="M7.31777 13.6964C8.00259 12.7557 9.32625 12.5453 10.2682 13.2288C11.2095 13.9136 11.4193 15.2373 10.7358 16.1793C10.4037 16.6366 9.91418 16.9364 9.35653 17.0244C9.24514 17.0423 9.13307 17.0512 9.02167 17.0512C8.57952 17.0512 8.14976 16.9123 7.78466 16.6469C7.32809 16.3155 7.02829 15.8259 6.94028 15.2683C6.8516 14.7113 6.98566 14.153 7.31777 13.6964ZM9.13644 15.634C9.3221 15.6045 9.48572 15.5041 9.59644 15.3521C9.82405 15.0379 9.75461 14.5964 9.44039 14.3682C9.31592 14.2782 9.17082 14.2341 9.02712 14.2341C8.80915 14.2341 8.59461 14.3352 8.4564 14.5243C8.34641 14.6762 8.3017 14.8626 8.33059 15.0482C8.36015 15.2339 8.46055 15.3975 8.6125 15.5082C8.76445 15.6182 8.95218 15.6595 9.13644 15.634Z" fill="#110E47"/>
<path fill-rule="evenodd" clip-rule="evenodd" d="M12.3842 16.1794C11.7007 15.2376 11.9105 13.914 12.8518 13.23C13.7938 12.5452 15.1187 12.7549 15.8022 13.6968C16.1343 14.1533 16.2684 14.7116 16.1797 15.2685C16.0917 15.8261 15.7919 16.3156 15.3353 16.647C14.9709 16.9123 14.5405 17.0512 14.0983 17.0512C13.987 17.0512 13.8749 17.0423 13.7635 17.0244C13.2059 16.9364 12.7163 16.6366 12.3849 16.1801L12.3842 16.1794ZM13.9835 15.6342C14.1692 15.661 14.3548 15.6191 14.5075 15.5084C14.6595 15.3977 14.7598 15.2341 14.7894 15.0484C14.8183 14.8628 14.7736 14.6765 14.6636 14.5246C14.4353 14.2104 13.9918 14.1403 13.6796 14.3692C13.3661 14.5968 13.2959 15.0382 13.5235 15.3524C13.6343 15.5043 13.7979 15.6047 13.9835 15.6342Z" fill="#110E47"/>
<path fill-rule="evenodd" clip-rule="evenodd" d="M13.7751 10.5235C13.4163 9.41598 14.024 8.22181 15.1309 7.86155C16.2378 7.50267 17.4326 8.11043 17.7929 9.21728C18.1517 10.3255 17.544 11.519 16.4371 11.8793H16.4365C16.2206 11.9494 16.0019 11.9824 15.7861 11.9824C14.8958 11.9824 14.0653 11.4145 13.7751 10.5235ZM15.1144 10.0883C15.234 10.4575 15.6314 10.6603 16.0019 10.54C16.3704 10.4197 16.5732 10.0216 16.4536 9.65243C16.3574 9.35542 16.0803 9.16637 15.7833 9.16637C15.7111 9.16637 15.6382 9.17736 15.5661 9.20074C15.1976 9.32104 14.9948 9.71911 15.1144 10.0883Z" fill="#110E47"/>
<path d="M12.456 10.6639C12.9509 11.1588 12.9509 11.9611 12.456 12.456C11.9612 12.9509 11.1588 12.9509 10.664 12.456C10.1691 11.9611 10.1691 11.1588 10.664 10.6639C11.1588 10.1691 11.9612 10.1691 12.456 10.6639Z" fill="#110E47"/>
</svg>
