<svg width="62" height="15" viewBox="0 0 62 15" fill="none" xmlns="http://www.w3.org/2000/svg">
<path d="M1.976 3.456L0.696001 3.232V2.112H9.688L9.864 5.104H8.424L7.784 3.36L4.712 3.168V7.6L6.808 7.552L7.128 6.112H8.248V10.384H7.144L6.808 8.896L4.712 8.832V12.768L7.16 12.944V14H0.776001V12.944L1.976 12.768V3.456ZM13.1284 3.728C12.7124 3.728 12.3764 3.60533 12.1204 3.36C11.8644 3.11467 11.7364 2.8 11.7364 2.416C11.7364 1.968 11.875 1.6 12.1524 1.312C12.4404 1.024 12.8244 0.879999 13.3044 0.879999C13.7844 0.879999 14.1524 1.00267 14.4084 1.248C14.6644 1.49333 14.7924 1.808 14.7924 2.192C14.7924 2.65067 14.6484 3.024 14.3604 3.312C14.0724 3.58933 13.667 3.728 13.1444 3.728H13.1284ZM12.1524 6.784L11.0804 6.48V5.28L14.2804 4.896H14.3124L14.8084 5.232V12.8L15.7684 12.944V14H11.1604V12.944L12.1524 12.8V6.784ZM18.0315 2.448L16.9115 2.24V1.264L20.1115 0.879999H20.1595L20.6235 1.216V12.8L21.6635 12.944V14H17.0075V12.944L18.0315 12.8V2.448ZM23.0675 12.944L23.9155 12.8V6.784L22.9715 6.496V5.248L25.8835 4.896L26.0115 4.96L26.3315 5.408V6.208C26.6728 5.856 27.1742 5.55733 27.8355 5.312C28.4968 5.056 29.0622 4.928 29.5315 4.928C30.1075 4.928 30.5715 5.024 30.9235 5.216C31.2862 5.408 31.5582 5.70667 31.7395 6.112C32.1022 5.77067 32.5555 5.488 33.0995 5.264C33.6542 5.04 34.2142 4.928 34.7795 4.928C35.7182 4.928 36.3902 5.2 36.7955 5.744C37.2115 6.288 37.4195 7.17867 37.4195 8.416V12.8L38.3795 12.944V14H34.0435V12.944L34.7635 12.8V8.48C34.7635 7.712 34.6728 7.17867 34.4915 6.88C34.3208 6.58133 34.0008 6.432 33.5315 6.432C33.0408 6.432 32.5288 6.64 31.9955 7.056C32.0595 7.45067 32.0915 7.904 32.0915 8.416V12.8L32.9875 12.944V14H28.6195V12.944L29.4195 12.8V8.432C29.4195 7.67467 29.3342 7.152 29.1635 6.864C29.0035 6.576 28.6942 6.432 28.2355 6.432C27.9368 6.432 27.6382 6.50133 27.3395 6.64C27.0515 6.768 26.8008 6.928 26.5875 7.12V12.8L27.4515 12.944V14H23.0675V12.944ZM48.0341 14C47.8848 14 47.6981 13.808 47.4741 13.424C47.2501 13.0293 46.9141 12.3893 46.4661 11.504C45.7728 10.0533 45.2395 9.07733 44.8661 8.576L43.5701 10.064V12.784L44.8981 12.944V14H39.6181V12.944L40.8501 12.768V3.456L39.6181 3.232V2.112H44.7541V3.232L43.5701 3.456V8.432L47.4741 3.456L46.1781 3.232V2.112H50.7381V3.216L49.3301 3.44L46.4501 6.704C46.8341 7.04533 47.2288 7.536 47.6341 8.176C48.0501 8.80533 48.5515 9.63733 49.1381 10.672C49.5328 11.3653 49.8261 11.872 50.0181 12.192C50.2208 12.512 50.3808 12.704 50.4981 12.768L51.2661 12.944V14H48.0341ZM59.3911 14.16C59.0071 14.16 58.7298 14.08 58.5591 13.92C58.3885 13.7493 58.3031 13.504 58.3031 13.184V12.832C58.0471 13.184 57.6631 13.4987 57.1511 13.776C56.6391 14.0427 56.1218 14.176 55.5991 14.176C54.5538 14.176 53.8071 13.92 53.3591 13.408C52.9218 12.8853 52.7031 12.016 52.7031 10.8V6.352L51.9511 6.144V5.12L54.9591 4.912H54.9751L55.3271 5.136V10.864C55.3271 11.5573 55.4125 12.0427 55.5831 12.32C55.7538 12.5867 56.0578 12.72 56.4951 12.72C57.0925 12.72 57.5938 12.5173 57.9991 12.112V6.352L57.0071 6.112V5.12L60.1751 4.912H60.2231L60.6071 5.136V12.896H61.4551V13.92C61.0925 13.9947 60.7565 14.0533 60.4471 14.096C60.1485 14.1387 59.7965 14.16 59.3911 14.16Z" fill="#110E47"/>
</svg>
