<svg width="16" height="18" viewBox="0 0 16 18" fill="none" xmlns="http://www.w3.org/2000/svg">
    <path fill-rule="evenodd" clip-rule="evenodd" d="M10.9396 15.4766H14.5999C15.372 15.4766 16 14.8164 16 14.0047C16 13.574 15.8216 13.1661 15.5103 12.8869C15.4911 12.8692 15.4703 12.8532 15.4488 12.8381C14.2728 11.7597 13.6 10.2088 13.6 8.57097V7.65428C13.6 7.30605 13.3312 7.02344 13 7.02344C12.6688 7.02344 12.4 7.30605 12.4 7.65428V8.57097C12.4 10.6032 13.2464 12.5251 14.7224 13.8456C14.7254 13.8482 14.7282 13.8506 14.7311 13.8531C14.7397 13.8604 14.7478 13.8673 14.7568 13.8743C14.7792 13.9029 14.8 13.9457 14.8 14.0047C14.8 14.119 14.7087 14.215 14.5999 14.215H1.39995C1.29126 14.215 1.2 14.119 1.2 14.0047C1.2 13.9467 1.2208 13.9029 1.24233 13.8743C1.25296 13.8667 1.2619 13.859 1.27145 13.8509C1.27347 13.8492 1.27553 13.8474 1.27763 13.8456C2.75273 12.526 3.59999 10.6032 3.59999 8.57097V6.22426C3.59999 3.67318 5.57445 1.59815 7.99993 1.59815C8.01187 1.59815 8.02407 1.59803 8.03643 1.59791C8.08953 1.59738 8.1456 1.59683 8.19753 1.6057C8.51833 1.66299 8.83357 1.43074 8.88791 1.0876C8.9424 0.744454 8.72151 0.418869 8.39441 0.36173C8.26638 0.338936 8.12795 0.336472 7.99993 0.336472C4.91278 0.336472 2.39999 2.97765 2.39999 6.22426V8.57097C2.39999 10.2078 1.72792 11.758 0.553563 12.8355C0.531151 12.8507 0.509618 12.8675 0.489549 12.886C0.178417 13.1661 0 13.574 0 14.0047C0 14.8164 0.627977 15.4766 1.39995 15.4766H5.06023C5.33905 16.9148 6.55173 18 7.99993 18C9.44826 18 10.6608 16.9148 10.9396 15.4766ZM9.69711 15.4766H6.30275C6.55047 16.2111 7.21805 16.7383 7.99993 16.7383C8.78181 16.7383 9.44939 16.2111 9.69711 15.4766Z" fill="#110E47"/>
    <path d="M13.0001 6C11.3458 6 10 4.65428 10 3.00005C10 1.34583 11.3458 0 13.0001 0C14.6543 0 16 1.34583 16 3.00005C16 4.65428 14.6543 6 13.0001 6Z" fill="#FF2E2E"/>
</svg>